<?xml version="1.0" encoding="UTF-8"?>
<svg id="_Слой_1" xmlns="http://www.w3.org/2000/svg" version="1.1" viewBox="0 0 1000 376">
  <!-- Generator: Adobe Illustrator 29.4.0, SVG Export Plug-In . SVG Version: 2.1.0 Build 152)  -->
  <defs>
    <style>
      .st0 {
        fill: #3aaa35;
      }
    </style>
  </defs>
  <g>
    <path d="M354.7,213.6c-2.8,0-5.1-.6-7-1.7s-3.3-2.8-4.3-4.8c-1-2.1-1.4-4.4-1.4-7.1s.5-5.1,1.5-7.2c1-2.1,2.4-3.7,4.3-4.9s4.2-1.8,6.9-1.8,3.8.3,5.4,1c1.5.7,2.8,1.6,3.8,2.9,1,1.2,1.6,2.8,1.9,4.6h-4.6c-.4-1.3-1.1-2.3-2.2-3s-2.5-1.1-4.2-1.1-3.4.4-4.6,1.3-2,2-2.5,3.4-.8,2.9-.8,4.5.3,3.2.8,4.6c.5,1.4,1.4,2.6,2.6,3.5s2.7,1.3,4.6,1.3,2.2-.2,3-.5,1.6-.8,2.2-1.4c.6-.6,1-1.4,1.2-2.2h4.8c-.3,1.8-1,3.3-2,4.6s-2.4,2.2-4,2.9-3.4,1-5.4,1h0Z"/>
    <path d="M375.9,213.5c-.9,0-1.7-.1-2.6-.4s-1.6-.6-2.2-1.1c-.7-.5-1.2-1.1-1.6-1.9s-.6-1.6-.6-2.6.2-2.4.8-3.2c.5-.8,1.2-1.4,2.1-1.9.9-.4,1.9-.7,3-.9s2.3-.2,3.5-.2h3.9c0-.9-.1-1.6-.4-2.3-.3-.6-.7-1.2-1.3-1.5s-1.4-.6-2.3-.6-1.2,0-1.7.2-1,.4-1.3.6c-.4.3-.6.7-.8,1.1h-4.7c.2-1,.5-1.9,1.1-2.7.5-.8,1.2-1.4,2-1.8.8-.5,1.7-.8,2.6-1.1s1.9-.4,2.9-.4c2,0,3.5.4,4.8,1.1,1.2.8,2.1,1.9,2.7,3.3s.9,3.1.9,5.1v10.8h-4.1v-2.4c-.7.7-1.3,1.3-2,1.6s-1.5.7-2.3.8-1.6.2-2.4.2h0v.2ZM377,209.8c1,0,2-.2,2.7-.6s1.4-.9,1.9-1.6c.5-.7.7-1.5.7-2.4v-.6h-5.5c-.6,0-1.1.1-1.6.3s-.8.4-1.1.7-.4.8-.4,1.4.1,1.1.5,1.5c.3.4.7.7,1.2.9s1.1.3,1.7.3h-.1Z"/>
    <path d="M391.3,213.2v-20h4.6v8.1h8.4v-8.1h4.6v20h-4.6v-7.8h-8.4v7.8h-4.6Z"/>
    <path d="M413.6,213.2v-20h4.6v8h3.2l5.2-8h5.2l-6.4,9.5,6.6,10.6h-5.4l-5-7.9h-3.5v7.9h-4.6,0Z"/>
    <path d="M440.4,213.2v-15.9h-6.6v-4.1h17.9v4.1h-6.6v15.9h-4.7Z"/>
    <path d="M452.8,204.4v-4.2h12.5v4.2h-12.5Z"/>
    <path d="M470.4,213.2v-26.9h21.9v26.9h-4.7v-22.6h-12.5v22.6h-4.7,0Z"/>
    <path d="M506.2,213.5c-2.1,0-3.8-.4-5.3-1.3-1.5-.9-2.6-2.1-3.3-3.6-.8-1.5-1.1-3.3-1.1-5.3s.4-3.8,1.2-5.4,1.9-2.8,3.3-3.7c1.5-.9,3.2-1.3,5.3-1.3s2.8.3,3.9.8,2.1,1.2,2.9,2.2c.8.9,1.4,2,1.8,3.2s.5,2.5.5,3.9v.9c0,.3,0,.6,0,.9h-14c0,.9.3,1.7.7,2.4.4.7,1,1.3,1.7,1.8s1.6.6,2.7.6,1.2,0,1.8-.2c.6-.2,1.1-.4,1.5-.7s.7-.8.9-1.2h4.6c-.3,1.4-.9,2.6-1.8,3.5s-1.9,1.6-3.2,2-2.5.6-3.9.6h-.1ZM501.2,201.3h9.6c0-.8-.2-1.6-.6-2.3s-.9-1.2-1.6-1.6c-.7-.4-1.5-.6-2.5-.6s-2,.2-2.7.6-1.2,1-1.6,1.7-.6,1.4-.6,2.2h0Z"/>
    <path d="M523.9,213.2v-15.9h-6.6v-4.1h17.9v4.1h-6.6v15.9h-4.7Z"/>
    <path d="M546.8,213.5c-2.1,0-3.8-.4-5.3-1.3-1.5-.9-2.6-2.1-3.3-3.6-.8-1.5-1.1-3.3-1.1-5.3s.4-3.8,1.2-5.4,1.9-2.8,3.3-3.7c1.5-.9,3.2-1.3,5.3-1.3s2.8.3,3.9.8c1.1.5,2.1,1.2,2.9,2.2.8.9,1.4,2,1.8,3.2s.5,2.5.5,3.9v.9c0,.3,0,.6,0,.9h-14c0,.9.3,1.7.7,2.4s1,1.3,1.7,1.8,1.6.6,2.7.6,1.2,0,1.8-.2,1.1-.4,1.5-.7.7-.8.9-1.2h4.6c-.3,1.4-.9,2.6-1.8,3.5s-1.9,1.6-3.2,2-2.5.6-3.9.6h-.1ZM541.8,201.3h9.6c0-.8-.2-1.6-.6-2.3s-.9-1.2-1.6-1.6c-.7-.4-1.5-.6-2.5-.6s-2,.2-2.7.6-1.2,1-1.6,1.7-.6,1.4-.7,2.2h0Z"/>
    <path d="M559.8,220.6v-27.4h4.3l.2,2.7c.8-1.1,1.8-1.8,2.9-2.3,1.1-.5,2.3-.7,3.6-.7,1.9,0,3.5.5,4.8,1.4s2.2,2.1,2.9,3.7,1,3.3,1,5.3-.3,3.7-1,5.2c-.7,1.6-1.6,2.8-3,3.7s-3,1.4-5.1,1.4-1.8-.1-2.6-.3-1.4-.5-2-.9-1.1-.8-1.5-1.2v9.5h-4.6,0ZM569.8,209.3c1.3,0,2.3-.3,3-.9.7-.6,1.3-1.3,1.6-2.2s.5-1.9.5-2.9-.2-2.1-.5-3-.9-1.7-1.7-2.3-1.8-.9-3-.9-2.1.3-2.9.9-1.4,1.3-1.8,2.3c-.4.9-.6,1.9-.6,3s.2,2.1.6,3.1,1,1.7,1.8,2.2,1.8.8,3.1.8h0Z"/>
    <path d="M592.4,213.5c-1.4,0-2.6-.2-3.6-.6s-2-1-2.8-1.7-1.4-1.6-1.9-2.6-.9-2.1-1.1-3.2-.4-2.4-.4-3.7c0-1.9,0-3.7.2-5.3s.5-3,1-4.3c.5-1.2,1.2-2.3,2.2-3.1s2.3-1.5,3.9-1.9c1-.3,2-.5,3.1-.7s2.2-.3,3.4-.5c.9-.1,1.6-.2,2.1-.3.5,0,1-.1,1.4-.2s.8-.1,1.1-.2v4.6c-.2.1-.5.2-.8.2s-.6,0-.9.1h-2.9c-1,.1-2.1.2-3.2.3s-2,.3-3,.6c-.9.3-1.7.9-2.2,1.7-.2.3-.5.8-.7,1.2-.2.5-.3,1-.4,1.6,0,.5-.2,1.1-.2,1.6.5-.8,1.2-1.4,2-1.9s1.6-.8,2.4-1,1.6-.3,2.4-.3c1.8,0,3.4.4,4.6,1.2,1.3.8,2.2,1.9,2.9,3.3.7,1.4,1,3,1,4.8s-.4,3.6-1.2,5.1-1.9,2.6-3.3,3.5-3.2,1.2-5.2,1.2h0v.5ZM592.4,209.4c1.1,0,2-.3,2.8-.8s1.3-1.2,1.7-2,.6-1.7.6-2.7-.2-1.8-.6-2.6-.9-1.4-1.7-1.9-1.7-.7-2.7-.7-2,.2-2.7.7-1.3,1.1-1.8,1.9-.6,1.7-.6,2.6.2,1.8.5,2.7.9,1.5,1.7,2c.7.5,1.7.8,2.8.8h0Z"/>
    <path d="M605.7,222.2v-4.6c1.1,0,2.1-.1,2.8-.4.7-.2,1.3-.6,1.8-1.1s.9-1.2,1.3-2l-8.5-20.8h5.4l5.8,15.5,4.5-15.5h5.1l-5.4,16.8c-.3.9-.6,1.9-1,2.9s-.8,2-1.2,3-1,1.9-1.6,2.7-1.2,1.5-2,2c-.6.4-1.2.8-1.8,1s-1.3.4-2.1.5-1.8.1-3.1.1h0Z"/>
    <path d="M626.5,220.6v-27.4h4.3l.2,2.7c.8-1.1,1.8-1.8,2.9-2.3,1.1-.5,2.3-.7,3.6-.7,1.9,0,3.5.5,4.8,1.4s2.2,2.1,2.9,3.7c.6,1.6,1,3.3,1,5.3s-.3,3.7-1,5.2-1.6,2.8-3,3.7-3,1.4-5.1,1.4-1.8-.1-2.6-.3-1.4-.5-2-.9-1.1-.8-1.5-1.2v9.5h-4.6,0ZM636.5,209.3c1.3,0,2.3-.3,3-.9.7-.6,1.3-1.3,1.6-2.2s.5-1.9.5-2.9-.2-2.1-.5-3-.9-1.7-1.7-2.3-1.8-.9-3-.9-2.1.3-2.9.9-1.4,1.3-1.8,2.3c-.4.9-.6,1.9-.6,3s.2,2.1.6,3.1,1,1.7,1.8,2.2,1.8.8,3.1.8h0Z"/>
    <path d="M650,213.2v-20h14.2v4.1h-9.6v15.9h-4.6Z"/>
    <path d="M675.8,213.5c-2.1,0-3.8-.4-5.2-1.3s-2.5-2.1-3.2-3.6c-.7-1.6-1.1-3.3-1.1-5.4s.4-3.8,1.1-5.4,1.9-2.8,3.3-3.7c1.5-.9,3.2-1.3,5.3-1.3s2.9.3,4.1.8,2.2,1.3,2.9,2.3,1.2,2.3,1.4,3.8h-4.5c-.3-1-.8-1.7-1.5-2.1s-1.5-.7-2.5-.7-2.3.3-3,.9-1.3,1.4-1.6,2.3-.5,1.9-.5,2.9.2,2.1.5,3,.9,1.7,1.7,2.2c.8.6,1.7.8,2.9.8s1.8-.2,2.6-.6,1.3-1.1,1.5-2.1h4.7c-.2,1.6-.7,2.8-1.5,3.9s-1.9,1.8-3.2,2.3-2.7.8-4.2.8h0v.2Z"/>
    <path d="M688.4,213.2v-20h4.6v8h3.2l5.2-8h5.2l-6.4,9.5,6.6,10.6h-5.3l-5-7.9h-3.5v7.9h-4.6Z"/>
    <path d="M709.6,213.2v-20h4.6v13c.2-.3.3-.6.6-.9.2-.3.5-.6.6-.8l8.6-11.3h4.1v20h-4.6v-12.9c-.2.3-.4.6-.6.9-.2.3-.4.6-.6.8l-8.5,11.1h-4.2,0Z"/>
    <path d="M732.8,213.2v-20h4.6v13c.2-.3.3-.6.6-.9.2-.3.5-.6.6-.8l8.6-11.3h4.1v20h-4.6v-12.9c-.2.3-.4.6-.6.9-.2.3-.4.6-.6.8l-8.5,11.1h-4.2,0ZM742.4,191.2c-2.2,0-3.8-.5-5.1-1.5s-1.8-2.5-1.9-4.5h4c0,.9.3,1.6.8,2s1.3.6,2.2.6,1.6-.2,2.2-.6.8-1.1.8-2h4c0,1.3-.3,2.4-.9,3.3s-1.4,1.6-2.4,2-2.3.7-3.7.7h0Z"/>
    <path d="M342.6,249.2v-20h17.6v20h-4.6v-15.9h-8.4v15.9h-4.6Z"/>
    <path d="M374.1,249.4c-2,0-3.8-.4-5.3-1.2s-2.6-2-3.4-3.6-1.2-3.4-1.2-5.4.4-3.9,1.2-5.4c.8-1.5,1.9-2.7,3.4-3.6,1.5-.9,3.2-1.3,5.3-1.3s3.8.4,5.2,1.3,2.6,2.1,3.4,3.6c.8,1.6,1.2,3.4,1.2,5.5s-.4,3.8-1.2,5.4-1.9,2.7-3.4,3.6c-1.5.8-3.2,1.2-5.3,1.2h0ZM374,245.2c1.3,0,2.3-.3,3.1-.8s1.3-1.3,1.7-2.2c.4-.9.5-1.9.5-3s-.2-2.1-.5-3c-.4-.9-.9-1.7-1.7-2.3s-1.8-.9-3.1-.9-2.3.3-3.1.9-1.4,1.3-1.7,2.3c-.4.9-.5,1.9-.5,3s.2,2.1.5,3,.9,1.6,1.7,2.2c.8.6,1.8.8,3.1.8Z"/>
    <path d="M385.8,249.2v-4.2c.6,0,1-.1,1.4-.4.4-.3.8-.6,1-1.1.3-.6.6-1.3.7-2.1s.2-1.7.3-2.6c0-1.1.1-2.3.2-3.4,0-1.1,0-2.3.1-3.3v-2.9h15v20h-4.6v-15.9h-6.1v2.7c0,1,0,1.9-.1,2.8,0,.9-.1,1.9-.3,2.8-.1,1-.3,2-.5,3s-.6,1.9-1.2,2.7-1.4,1.3-2.3,1.6-2.1.4-3.6.4h0Z"/>
    <path d="M409.4,249.2v-20h4.6v13c.1-.3.4-.6.6-.9s.5-.6.6-.8l8.6-11.3h4.1v20h-4.6v-12.9c-.2.3-.4.6-.6.9s-.4.6-.6.8l-8.5,11.1h-4.2Z"/>
    <path d="M437.3,249.2v-15.9h-6.6v-4.1h17.9v4.1h-6.6v15.9h-4.7Z"/>
    <path d="M460.2,249.4c-2.1,0-3.8-.4-5.3-1.3-1.5-.9-2.6-2.1-3.3-3.6-.8-1.5-1.1-3.3-1.1-5.3s.4-3.8,1.2-5.4,1.9-2.8,3.3-3.7c1.5-.9,3.2-1.3,5.3-1.3s2.8.3,3.9.8,2.1,1.2,2.9,2.2c.8.9,1.4,2,1.8,3.2s.5,2.5.5,3.9v.9c0,.3,0,.6-.1.9h-14c0,.9.3,1.7.7,2.4.4.7,1,1.3,1.7,1.8s1.6.6,2.7.6,1.2,0,1.8-.2c.6-.2,1.1-.4,1.5-.7s.7-.8.9-1.2h4.6c-.3,1.4-.9,2.6-1.8,3.5s-1.9,1.6-3.2,2-2.5.6-3.9.6h-.1ZM455.1,237.2h9.6c0-.8-.2-1.6-.6-2.3s-.9-1.2-1.6-1.6c-.7-.4-1.5-.6-2.5-.6s-2,.2-2.7.6-1.2,1-1.6,1.7-.6,1.4-.6,2.2h0Z"/>
    <path d="M470.3,249.2l7.1-10.2-6.7-9.8h5.4l4.3,6.7,4.2-6.7h5.3l-6.7,9.9,7.2,10.1h-5.4l-4.7-6.9-4.7,6.9h-5.3Z"/>
    <path d="M493.2,249.2v-20h4.6v8.1h8.4v-8.1h4.6v20h-4.6v-7.8h-8.4v7.8h-4.6Z"/>
    <path d="M515.5,249.2v-20h4.6v13c.2-.3.3-.6.6-.9.2-.3.5-.6.6-.8l8.6-11.3h4.1v20h-4.6v-12.9c-.2.3-.4.6-.6.9-.2.3-.4.6-.6.8l-8.5,11.1h-4.2,0Z"/>
    <path d="M549.9,249.2v-7.1c-1,.1-1.8.2-2.5.3h-1.9c-1.9,0-3.4-.3-4.6-.9s-2-1.5-2.5-2.8c-.5-1.2-.8-2.8-.8-4.6v-5h4.6v4.8c0,.9,0,1.6.2,2.3.2.6.5,1.1,1.1,1.5s1.4.5,2.6.5h1.8c.6,0,1.3-.1,1.9-.2v-8.8h4.6v20h-4.6.1Z"/>
    <path d="M568.1,249.4c-2.1,0-3.8-.4-5.3-1.3-1.5-.9-2.6-2.1-3.3-3.6-.8-1.5-1.1-3.3-1.1-5.3s.4-3.8,1.2-5.4c.8-1.6,1.9-2.8,3.3-3.7,1.5-.9,3.2-1.3,5.3-1.3s2.8.3,3.9.8c1.1.5,2.1,1.2,2.9,2.2.8.9,1.4,2,1.8,3.2s.5,2.5.5,3.9v.9c0,.3,0,.6,0,.9h-14c0,.9.3,1.7.7,2.4s1,1.3,1.7,1.8,1.6.6,2.7.6,1.2,0,1.8-.2,1.1-.4,1.5-.7.7-.8.9-1.2h4.6c-.3,1.4-.9,2.6-1.8,3.5s-1.9,1.6-3.2,2-2.5.6-3.9.6h-.1ZM563.1,237.2h9.6c0-.8-.2-1.6-.6-2.3s-.9-1.2-1.6-1.6c-.7-.4-1.5-.6-2.5-.6s-2,.2-2.7.6-1.2,1-1.6,1.7-.6,1.4-.7,2.2h0Z"/>
    <path d="M589.8,249.4c-2.1,0-3.8-.4-5.2-1.3s-2.5-2.1-3.2-3.6c-.7-1.6-1.1-3.3-1.1-5.4s.4-3.8,1.1-5.4,1.9-2.8,3.3-3.7c1.5-.9,3.2-1.3,5.3-1.3s2.9.3,4.1.8,2.2,1.3,2.9,2.3,1.2,2.3,1.4,3.8h-4.5c-.3-1-.8-1.7-1.5-2.1s-1.5-.7-2.5-.7-2.3.3-3,.9-1.3,1.4-1.6,2.3c-.3.9-.5,1.9-.5,2.9s.2,2.1.5,3,.9,1.7,1.7,2.2c.8.6,1.7.8,2.9.8s1.8-.2,2.6-.6,1.3-1.1,1.5-2.1h4.7c-.2,1.6-.7,2.8-1.5,3.9s-1.9,1.8-3.2,2.3-2.7.8-4.2.8h0v.2Z"/>
    <path d="M602.3,249.2v-20h4.6v8h3.2l5.2-8h5.2l-6.4,9.5,6.6,10.6h-5.3l-5-7.9h-3.5v7.9h-4.6Z"/>
    <path d="M623.5,249.2v-20h4.6v13c.2-.3.3-.6.6-.9.2-.3.5-.6.6-.8l8.6-11.3h4.1v20h-4.6v-12.9c-.2.3-.4.6-.6.9-.2.3-.4.6-.6.8l-8.5,11.1h-4.2,0Z"/>
    <path d="M646.8,249.2v-20h4.6v13c.2-.3.3-.6.6-.9.2-.3.5-.6.6-.8l8.6-11.3h4.1v20h-4.6v-12.9c-.2.3-.4.6-.6.9-.2.3-.4.6-.6.8l-8.5,11.1h-4.2,0ZM656.4,227.1c-2.2,0-3.8-.5-5.1-1.5s-1.8-2.5-1.9-4.5h4c0,.9.3,1.6.8,2s1.3.6,2.2.6,1.6-.2,2.2-.6.8-1.1.8-2h4c0,1.3-.3,2.4-.9,3.3s-1.4,1.6-2.4,2-2.3.7-3.7.7h0Z"/>
    <path d="M681.2,258.1v-4.6c1.1,0,2.1-.1,2.8-.4.7-.2,1.3-.6,1.8-1.1s.9-1.2,1.3-2l-8.5-20.8h5.4l5.8,15.5,4.5-15.5h5.1l-5.4,16.8c-.3.9-.6,1.9-1,2.9s-.8,2-1.2,3-1,1.9-1.6,2.7-1.2,1.5-2,2c-.6.4-1.2.8-1.8,1s-1.3.4-2.1.5-1.8.1-3.1.1h0Z"/>
    <path d="M702,249.2v-20h4.6v8.1h8.3v-8.1h4.6v20h-4.6v-7.8h-8.3v7.8h-4.6Z"/>
    <path d="M724.3,249.2v-20h4.6v13c.2-.3.3-.6.6-.9.2-.3.5-.6.6-.8l8.6-11.3h4.1v20h-4.6v-12.9c-.2.3-.4.6-.6.9-.2.3-.4.6-.6.8l-8.5,11.1h-4.2,0Z"/>
    <path d="M747.6,249.2v-20h9.1c.9,0,1.7,0,2.6.2s1.7.4,2.4.7c.7.4,1.3.9,1.7,1.6.4.7.7,1.6.7,2.7s0,1.2-.3,1.7-.5,1-.8,1.4-.8.7-1.3,1c1.2.3,2,.9,2.5,1.7s.8,1.8.8,3-.2,2-.6,2.8c-.4.8-1,1.4-1.7,1.9s-1.5.8-2.4,1.1c-.9.2-1.8.3-2.6.3h-10.1ZM752.3,237.4h4.6c.5,0,.9-.2,1.4-.3s.8-.4,1.1-.7.4-.7.4-1.2-.2-1.1-.5-1.4-.8-.5-1.3-.5-1-.1-1.5-.1h-4v4.3h-.2ZM752.3,245.1h4.7c.6,0,1.2,0,1.7-.2s.9-.4,1.2-.7.5-.8.5-1.4,0-1-.4-1.3c-.2-.3-.6-.6-1-.7s-.8-.2-1.3-.3h-5.5v4.5h0Z"/>
    <path d="M777.6,249.4c-2.1,0-3.8-.4-5.3-1.3-1.5-.9-2.6-2.1-3.3-3.6-.8-1.5-1.1-3.3-1.1-5.3s.4-3.8,1.2-5.4,1.9-2.8,3.3-3.7c1.5-.9,3.2-1.3,5.3-1.3s2.8.3,3.9.8c1.1.5,2.1,1.2,2.9,2.2.8.9,1.4,2,1.8,3.2s.5,2.5.5,3.9v.9c0,.3,0,.6,0,.9h-14c0,.9.3,1.7.7,2.4s1,1.3,1.7,1.8,1.6.6,2.7.6,1.2,0,1.8-.2,1.1-.4,1.5-.7.7-.8.9-1.2h4.6c-.3,1.4-.9,2.6-1.8,3.5s-1.9,1.6-3.2,2-2.5.6-3.9.6h-.1ZM772.6,237.2h9.6c0-.8-.2-1.6-.6-2.3s-.9-1.2-1.6-1.6c-.7-.4-1.5-.6-2.5-.6s-2,.2-2.7.6-1.2,1-1.6,1.7-.6,1.4-.7,2.2h0Z"/>
    <path d="M790.6,256.5v-27.4h4.3l.2,2.7c.8-1.1,1.8-1.8,2.9-2.3,1.1-.5,2.3-.7,3.6-.7,1.9,0,3.5.5,4.8,1.4s2.2,2.1,2.9,3.7,1,3.3,1,5.3-.3,3.7-1,5.2-1.6,2.8-3,3.7-3,1.4-5.1,1.4-1.8-.1-2.6-.3-1.4-.5-2-.9-1.1-.8-1.5-1.2v9.5h-4.6,0ZM800.6,245.2c1.3,0,2.3-.3,3-.9.7-.6,1.3-1.3,1.6-2.2s.5-1.9.5-2.9-.2-2.1-.5-3-.9-1.7-1.7-2.3-1.8-.9-3-.9-2.1.3-2.9.9-1.4,1.3-1.8,2.3c-.4.9-.6,1.9-.6,3s.2,2.1.6,3.1,1,1.7,1.8,2.2,1.8.8,3.1.8h0Z"/>
    <path d="M822.8,249.4c-2.1,0-3.8-.4-5.2-1.3s-2.5-2.1-3.2-3.6c-.7-1.6-1.1-3.3-1.1-5.4s.4-3.8,1.1-5.4,1.9-2.8,3.3-3.7c1.5-.9,3.2-1.3,5.3-1.3s2.9.3,4.1.8,2.2,1.3,2.9,2.3,1.2,2.3,1.4,3.8h-4.5c-.3-1-.8-1.7-1.5-2.1s-1.5-.7-2.5-.7-2.3.3-3,.9-1.3,1.4-1.6,2.3-.5,1.9-.5,2.9.2,2.1.5,3,.9,1.7,1.7,2.2c.8.6,1.7.8,2.9.8s1.8-.2,2.6-.6,1.3-1.1,1.5-2.1h4.7c-.2,1.6-.7,2.8-1.5,3.9s-1.9,1.8-3.2,2.3-2.7.8-4.2.8h0v.2Z"/>
    <path d="M835.3,249.2v-20h4.6v13c.2-.3.3-.6.6-.9.2-.3.5-.6.6-.8l8.6-11.3h4.1v20h-4.6v-12.9c-.2.3-.4.6-.6.9-.2.3-.4.6-.6.8l-8.5,11.1h-4.2,0Z"/>
    <path d="M863.2,249.2v-15.9h-6.6v-4.1h17.9v4.1h-6.6v15.9h-4.7Z"/>
    <path d="M886.1,249.4c-2.1,0-3.8-.4-5.3-1.3-1.5-.9-2.6-2.1-3.3-3.6-.8-1.5-1.1-3.3-1.1-5.3s.4-3.8,1.2-5.4c.8-1.6,1.9-2.8,3.3-3.7,1.5-.9,3.2-1.3,5.3-1.3s2.8.3,3.9.8c1.1.5,2.1,1.2,2.9,2.2.8.9,1.4,2,1.8,3.2s.5,2.5.5,3.9v.9c0,.3,0,.6,0,.9h-14c0,.9.3,1.7.7,2.4s1,1.3,1.7,1.8,1.6.6,2.7.6,1.2,0,1.8-.2,1.1-.4,1.5-.7.7-.8.9-1.2h4.6c-.3,1.4-.9,2.6-1.8,3.5s-1.9,1.6-3.2,2-2.5.6-3.9.6h-.1ZM881,237.2h9.6c0-.8-.2-1.6-.6-2.3s-.9-1.2-1.6-1.6c-.7-.4-1.5-.6-2.5-.6s-2,.2-2.7.6-1.2,1-1.6,1.7-.6,1.4-.7,2.2h0Z"/>
    <path d="M903.7,249.2v-15.9h-6.6v-4.1h17.9v4.1h-6.6v15.9h-4.7Z"/>
    <path d="M343.4,285.1v-26.9h21.9v26.9h-4.7v-22.6h-12.5v22.6h-4.7,0Z"/>
    <path d="M379.3,285.3c-2.1,0-3.8-.4-5.3-1.3s-2.6-2.1-3.3-3.6c-.8-1.5-1.1-3.3-1.1-5.3s.4-3.8,1.2-5.4,1.9-2.8,3.3-3.7c1.5-.9,3.2-1.3,5.3-1.3s2.8.3,3.9.8,2.1,1.2,2.9,2.2c.8.9,1.4,2,1.8,3.2s.5,2.5.5,3.9v.9c0,.3,0,.6-.1.9h-14c0,.9.3,1.7.7,2.4.4.7,1,1.3,1.7,1.8s1.6.6,2.7.6,1.2,0,1.8-.2c.6-.2,1.1-.4,1.5-.7.4-.3.7-.8.9-1.2h4.6c-.3,1.4-.9,2.6-1.8,3.5s-1.9,1.6-3.2,2-2.5.6-3.9.6h-.1ZM374.3,273.1h9.6c0-.8-.2-1.6-.6-2.3s-.9-1.2-1.6-1.6-1.5-.6-2.5-.6-2,.2-2.7.6-1.2,1-1.6,1.7-.6,1.4-.6,2.2h0Z"/>
    <path d="M397,285.1v-15.9h-6.6v-4.1h17.9v4.1h-6.6v15.9h-4.7Z"/>
    <path d="M411,292.5v-27.4h4.3l.2,2.7c.8-1.1,1.8-1.8,2.9-2.3s2.3-.7,3.6-.7c1.9,0,3.5.5,4.8,1.4s2.2,2.1,2.9,3.7,1,3.3,1,5.3-.3,3.7-1,5.2-1.6,2.8-3,3.7c-1.3.9-3,1.4-5.1,1.4s-1.8-.1-2.6-.3c-.8-.2-1.4-.5-2-.9s-1.1-.8-1.5-1.2v9.5h-4.6.1ZM421,281.2c1.3,0,2.3-.3,3-.9s1.3-1.3,1.6-2.2c.3-.9.5-1.9.5-3s-.2-2.1-.5-3-.9-1.7-1.6-2.3-1.8-.9-3-.9-2.1.3-2.9.9-1.4,1.3-1.8,2.3-.6,2-.6,3,.2,2.1.6,3.1,1,1.7,1.8,2.2,1.8.8,3.1.8h-.2Z"/>
    <path d="M440.4,285.3c-.9,0-1.7-.1-2.6-.4s-1.6-.6-2.2-1.1-1.2-1.1-1.6-1.9-.6-1.6-.6-2.6.2-2.4.8-3.2,1.2-1.5,2.1-1.9,1.9-.7,3-.9c1.1-.2,2.3-.2,3.5-.2h3.9c0-.9-.1-1.6-.4-2.3s-.7-1.2-1.3-1.5-1.4-.6-2.3-.6-1.2,0-1.7.2c-.5.1-1,.4-1.3.6-.4.3-.6.7-.8,1.1h-4.7c.2-1,.5-1.9,1.1-2.7.5-.8,1.2-1.4,2-1.8.8-.5,1.7-.8,2.6-1.1s1.9-.4,2.9-.4c2,0,3.5.4,4.8,1.1,1.2.8,2.1,1.9,2.7,3.3s.9,3.1.9,5.1v10.8h-4.1v-2.4c-.7.7-1.3,1.3-2,1.6s-1.5.7-2.3.8-1.6.2-2.4.2h0v.2ZM441.5,281.6c1,0,2-.2,2.7-.6s1.4-.9,1.9-1.6.7-1.5.7-2.4v-.6h-5.5c-.6,0-1.1.1-1.6.3-.5.2-.8.4-1.1.7s-.4.8-.4,1.4.1,1.1.5,1.5c.3.4.7.7,1.2.9.5.2,1.1.3,1.7.3h-.1Z"/>
    <path d="M466.9,285.1v-26.9h11c1.2,0,2.4.1,3.4.3,1,.2,2,.6,2.7,1.1.8.5,1.4,1.2,1.8,2.1s.6,2,.6,3.3-.3,2.3-.8,3.3-1.4,1.8-2.5,2.3c1.5.4,2.6,1.1,3.4,2.2s1.2,2.5,1.2,4.3-.3,2.8-.9,3.9c-.6,1-1.4,1.8-2.4,2.4s-2.1,1-3.4,1.2-2.7.4-4.1.4h-10.1,0ZM471.6,269.5h5c.8,0,1.5,0,2.1-.2s1.2-.4,1.6-.7.8-.7,1.1-1.2.4-1,.4-1.7-.2-1.5-.6-2c-.4-.4-.9-.8-1.6-.9s-1.4-.2-2.3-.2h-5.7v6.9h0ZM471.6,280.7h5.6c.7,0,1.4,0,2.1-.1s1.3-.3,1.9-.5,1-.6,1.3-1.1.5-1.1.5-1.9-.1-1.3-.4-1.8-.6-.8-1-1.1c-.4-.3-1-.5-1.6-.6s-1.2-.2-1.9-.2h-6.5v7.3h0Z"/>
    <path d="M500.4,285.3c-2.1,0-3.8-.4-5.3-1.3s-2.6-2.1-3.3-3.6c-.8-1.5-1.1-3.3-1.1-5.3s.4-3.8,1.2-5.4,1.9-2.8,3.3-3.7c1.5-.9,3.2-1.3,5.3-1.3s2.8.3,3.9.8,2.1,1.2,2.9,2.2c.8.9,1.4,2,1.8,3.2s.5,2.5.5,3.9v.9c0,.3,0,.6-.1.9h-14c0,.9.3,1.7.7,2.4.4.7,1,1.3,1.7,1.8s1.6.6,2.7.6,1.2,0,1.8-.2c.6-.2,1.1-.4,1.5-.7.4-.3.7-.8.9-1.2h4.6c-.3,1.4-.9,2.6-1.8,3.5s-1.9,1.6-3.2,2-2.5.6-3.9.6h-.1ZM495.4,273.1h9.6c0-.8-.2-1.6-.6-2.3s-.9-1.2-1.6-1.6-1.5-.6-2.5-.6-2,.2-2.7.6-1.2,1-1.6,1.7-.6,1.4-.6,2.2h0Z"/>
    <path d="M511.7,285.1v-4.2c.6,0,1-.1,1.4-.4s.8-.6,1-1.1c.3-.6.6-1.3.7-2.1.2-.9.2-1.7.3-2.6,0-1.1,0-2.3.2-3.4s0-2.3,0-3.3v-2.9h15v20h-4.6v-15.9h-6.1v2.7c0,1,0,1.9,0,2.8,0,1,0,1.9-.3,2.8,0,1-.3,2-.5,3s-.7,1.9-1.2,2.7c-.6.8-1.4,1.3-2.3,1.6s-2.1.4-3.6.4h0Z"/>
    <path d="M535.3,285.1v-20h4.6v13c.2-.3.3-.6.6-.9.2-.3.5-.6.6-.8l8.6-11.3h4.1v20h-4.6v-12.9c-.2.3-.4.6-.6.9-.2.3-.4.6-.6.8l-8.5,11.1h-4.2,0Z"/>
    <path d="M558.6,285.1v-20h4.6v8h3.2l5.2-8h5.2l-6.4,9.5,6.6,10.6h-5.3l-5-7.9h-3.5v7.9h-4.6Z"/>
    <path d="M588.1,285.3c-2,0-3.8-.4-5.3-1.2-1.5-.8-2.6-2-3.4-3.6s-1.2-3.4-1.2-5.4.4-3.9,1.2-5.5,1.9-2.7,3.4-3.6,3.2-1.3,5.3-1.3,3.8.4,5.2,1.3c1.5.9,2.6,2.1,3.4,3.6s1.2,3.4,1.2,5.5-.4,3.8-1.2,5.4-1.9,2.7-3.4,3.5-3.2,1.2-5.3,1.2h0ZM588.1,281.1c1.3,0,2.3-.3,3.1-.8s1.3-1.3,1.7-2.2c.3-.9.5-1.9.5-3s-.2-2.1-.5-3c-.4-.9-.9-1.7-1.7-2.3s-1.8-.9-3.1-.9-2.3.3-3.1.9-1.3,1.3-1.7,2.3-.5,1.9-.5,3,.2,2.1.5,3,.9,1.6,1.7,2.2c.8.5,1.8.8,3.1.8Z"/>
    <path d="M601.8,285.1v-20h14.2v4.1h-9.6v15.9h-4.6Z"/>
    <path d="M627.9,285.3c-2,0-3.8-.4-5.3-1.2s-2.6-2-3.4-3.6c-.8-1.5-1.2-3.4-1.2-5.4s.4-3.9,1.2-5.5,1.9-2.7,3.4-3.6,3.2-1.3,5.3-1.3,3.8.4,5.2,1.3c1.5.9,2.6,2.1,3.4,3.6s1.2,3.4,1.2,5.5-.4,3.8-1.2,5.4-1.9,2.7-3.4,3.5-3.2,1.2-5.3,1.2h0ZM627.9,281.1c1.3,0,2.3-.3,3.1-.8s1.3-1.3,1.7-2.2c.3-.9.5-1.9.5-3s-.2-2.1-.5-3c-.4-.9-.9-1.7-1.7-2.3s-1.8-.9-3.1-.9-2.3.3-3.1.9-1.3,1.3-1.7,2.3-.5,1.9-.5,3,.2,2.1.5,3,.9,1.6,1.7,2.2c.8.5,1.8.8,3.1.8Z"/>
  </g>
  <g>
    <g>
      <path d="M344.3,162.6v-80.1l70-.2v80.1h-16.2v-65.2l-37.7.2v65.2h-16.2.1Z"/>
      <path d="M499.2,101c-3.2-6.1-7.7-10.9-13.6-14.3s-12.9-5.1-21-5.2c-8.2,0-15.3,1.7-21.3,5.1s-10.5,8.2-13.8,14.4c-3.2,6.2-4.8,13.3-4.9,21.5,0,8,1.5,15.1,4.6,21.2,3.1,6.2,7.6,11,13.5,14.5s13,5.2,21.2,5.3c8.3,0,15.4-1.7,21.3-5.2s10.5-8.3,13.7-14.5,4.8-13.3,4.9-21.3c0-8.2-1.6-15.3-4.8-21.4h.2ZM481.4,141.1c-4.1,4.2-9.7,6.9-15.9,7.3h-2.7c-5.4-.3-10.3-2.5-14.2-5.9-5.5-4.8-8.8-12-8.8-20s3-14.3,8-19c0,0,.1-.2.3-.3,4-3.7,9.2-6.1,14.9-6.4h2.7c6,.3,11.4,2.9,15.4,6.9.2.2.4.4.6.6,4.5,4.7,7.2,11,7.2,18.2s-2.8,13.9-7.4,18.6h-.1Z"/>
      <path d="M505.9,162.9v-15.2c2.6,0,4.9-.5,6.4-1.5s2.9-2.3,3.7-4.1,1.3-4.4,1.7-6.8c.4-2.1.5-4.2.6-6.6.2-2.4,0-4.8,0-7.1v-5.9l.3-33.3,57.9-.2v80.1h-16.3v-65.1l-26.3.2-.2,19.1c0,5.8-.2,11.3-.4,16.3s-.8,9.7-1.8,13.7-4.3,12-13.7,14.4c-3.2.8-7,1.8-12,1.8h0v.2Z"/>
      <path d="M589.5,162.6v-80.1h16.2v49.8l38.1-49.7,15.7-.2v80.1h-16.2v-52.2l-40,52.2h-13.8Z"/>
      <path d="M693.1,162.5v-65.1h-26.8v-15.1h70v15.1h-26.9v65.1h-16.3Z"/>
      <path d="M743.5,162.5v-80.1h57.6v15.1h-41.5v18.1h38.7v14.5h-38.7v17.5h41.5v14.9h-57.6Z"/>
      <path d="M806.1,162.3l25.9-39.9-25.7-40.2h19.5l16.5,26.7,16.3-26.5h19.2l-25.9,39.9,25.9,40h-19.5l-16.7-28.1-17.2,28.1h-18.4.1Z"/>
    </g>
    <path class="st0" d="M85.5,81.5l-.5,212.5,212.1.5.5-212.5-212.1-.5ZM246.9,149c-1.4.4-5.5,1.2-5.5,1.2l-.2,81.5h23.6v24.9h-51.1c0-.1.2-105.5.2-105.5h-43.2c0-.1-.3,60.2-.3,60.2,0,4.6-.7,9.2-2,13.7-3.8,12.9-12.9,23.7-24.9,29.7-3.8,1.9-7.9,3.3-12.2,4.2-4.6.9-9.4,1.1-14.2.6v-25.2c10,1.1,19.9-4.4,24.1-13.5,1.1-2.2,2.4-5.1,2.3-9.5v-60.9c-10.3,2.3-17.9,10.7-22.7,19.2l-22.5-12.8c2.5-4.6,7-12,10-15.5,7.2-8.2,16.1-13.8,23.5-15.7,2.6-.7,8.2-1.8,12.9-1.8,19.9,0,87.8-.2,87.8-.2,11.1,0,21.1-5.8,26.5-15.4l22,12.9c-7,13.8-19.4,24-34.3,28h.2Z"/>
  </g>
</svg>